<svg xmlns="http://www.w3.org/2000/svg" viewBox="0 0 128 128" width="128" height="128"><defs><linearGradient id="g" x1="0" y1="0" x2="1" y2="1"><stop offset="0" stop-color="#D9D2F5"/><stop offset="1" stop-color="#B7B0E8"/></linearGradient></defs><rect x="4" y="4" width="120" height="120" rx="32" fill="url(#g)"/><ellipse cx="50" cy="20" rx="42" ry="14" fill="#FFFFFF" opacity="0.22"/><rect x="40" y="32" width="48" height="9" rx="4.5" fill="#FFFFFF" opacity="1"/><rect x="40" y="87" width="48" height="9" rx="4.5" fill="#FFFFFF" opacity="1"/><polyline points="48.0,41.0 48.0,52.0 64.0,64.0 80.0,52.0 80.0,41.0" fill="none" stroke="#FFFFFF" stroke-width="7" stroke-linecap="round" stroke-linejoin="round" opacity="1"/><polyline points="48.0,87.0 48.0,76.0 64.0,64.0 80.0,76.0 80.0,87.0" fill="none" stroke="#FFFFFF" stroke-width="7" stroke-linecap="round" stroke-linejoin="round" opacity="1"/><polygon points="56.0,86.0 72.0,86.0 64.0,76.0" fill="#FFFFFF" opacity="1" stroke="#FFFFFF" stroke-width="3" stroke-linejoin="round"/><polygon points="98.0,20.0 100.2,27.8 108.0,30.0 100.2,32.2 98.0,40.0 95.8,32.2 88.0,30.0 95.8,27.8" fill="#FFFFFF" opacity="0.95"/></svg>
